<svg width="512" height="512" xmlns="http://www.w3.org/2000/svg" preserveAspectRatio="xMidYMid meet" version="1.0">

 <g>
  <title>Слой 1</title>
  <g id="svg_1" fill="#000000" transform="translate(0 512) scale(0.1 -0.1)">
   <path fill="#ffffff" id="svg_2" d="m915,5109c-323,-41 -595,-205 -747,-449c-209,-335 -222,-817 -36,-1330c75,-208 248,-506 368,-631c61,-64 82,-71 124,-38c43,33 36,75 -24,147c-286,343 -468,864 -446,1277c25,465 258,760 679,857c124,29 395,31 542,4c380,-69 743,-248 1024,-504l65,-58l-43,-57c-24,-31 -46,-57 -48,-57c-3,0 -40,33 -82,73c-221,207 -556,378 -882,449c-89,19 -133,22 -304,22c-174,0 -210,-3 -277,-21c-137,-39 -223,-88 -316,-179c-70,-69 -89,-96 -126,-175c-72,-154 -81,-203 -81,-434c1,-183 3,-210 29,-319c130,-556 467,-1000 892,-1174c156,-64 223,-77 419,-77c200,0 275,14 426,79l75,33l11,-46l11,-46l-50,-51c-52,-54 -96,-72 -253,-106c-91,-19 -343,-16 -445,5c-175,37 -356,113 -495,206c-73,50 -114,54 -144,15c-12,-15 -21,-35 -21,-45c0,-73 306,-243 545,-303c147,-37 270,-49 420,-42l130,6l-358,-358l-358,-358l-87,-28c-161,-52 -190,-72 -392,-271c-204,-200 -182,-186 -363,-231c-148,-36 -297,-179 -297,-284c0,-66 29,-103 263,-338c235,-236 281,-272 345,-272c107,0 249,148 286,297c45,181 31,159 231,363c198,202 218,231 270,390c27,84 29,87 141,200c97,98 114,120 114,147c0,22 -8,38 -26,52c-48,38 -69,29 -173,-74l-97,-95l-37,38l-37,37l482,482l483,483l37,-37l38,-37l-285,-286c-248,-249 -285,-290 -285,-316c0,-39 36,-74 76,-74c25,0 72,43 329,300c300,300 301,301 331,290c16,-7 70,-14 120,-17l92,-6l500,-501l500,-501l27,-85c52,-160 72,-190 264,-385c98,-99 184,-196 193,-215c9,-20 24,-69 32,-110c21,-100 56,-168 124,-242c88,-95 163,-119 246,-78c56,27 500,472 520,522c31,74 15,137 -55,212c-62,68 -147,121 -226,140c-169,42 -167,41 -267,137c-103,98 -133,110 -174,66c-42,-45 -31,-73 71,-173c90,-89 145,-126 219,-148l38,-12l-180,-179c-126,-126 -180,-174 -180,-160c0,11 -14,49 -30,83c-25,52 -62,97 -209,246c-98,100 -187,199 -198,221c-11,22 -30,71 -43,109l-22,68l59,60l59,59l89,-32c50,-17 102,-31 118,-31c51,-1 82,52 61,107c-8,21 -60,46 -166,81l-87,28l-356,356l-356,356l178,0c132,-1 201,4 268,17c512,103 912,431 1179,969c208,415 277,878 185,1235c-79,309 -272,541 -555,666c-131,58 -335,97 -507,97c-214,0 -517,-61 -709,-142c-57,-24 -77,-61 -56,-105c24,-50 53,-51 190,-6c372,124 715,133 993,28c208,-78 368,-233 455,-441c121,-291 99,-711 -56,-1104c-230,-581 -658,-967 -1168,-1055c-624,-107 -1226,306 -1362,935c-26,118 -26,362 0,480c82,381 324,712 691,945c33,21 65,46 72,54c18,24 15,55 -8,85c-27,34 -67,34 -127,-1c-70,-41 -228,-162 -304,-232l-67,-62l-98,86c-423,374 -1051,586 -1548,524zm395,-453c118,-20 150,-27 150,-35c0,-3 -45,-53 -99,-111l-99,-105l-134,133l-133,132l115,0c63,0 153,-6 200,-14zm-327,-194l167,-167l-178,-178l-177,-177l-159,159l-160,160l13,43c37,123 140,245 253,298c34,16 65,30 68,30c3,0 81,-75 173,-168zm802,43c61,-29 150,-79 198,-111l89,-57l-186,-186l-186,-186l-167,167l-168,168l135,135c107,108 139,134 155,129c11,-3 70,-30 130,-59zm460,-326c25,-27 44,-55 42,-62c-103,-237 -124,-313 -152,-531l-7,-49l-159,159l-159,159l187,187c103,104 191,188 194,188c3,0 28,-23 54,-51zm-832,-501l-178,-178l-167,167l-168,168l177,177l178,178l167,-167l168,-168l-177,-177zm-818,62c-49,-49 -92,-90 -95,-90c-14,0 -44,185 -47,295l-5,120l118,-117l119,-118l-90,-90zm1275,-165l165,-165l-178,-178l-177,-177l-167,168l-168,167l175,175c96,96 177,175 180,175c3,0 79,-74 170,-165zm-910,-20l165,-165l-171,-171l-171,-171l-60,94c-65,99 -104,174 -148,277l-27,64l119,119c65,65 120,118 123,118c3,0 79,-74 170,-165zm1190,-311c0,-35 41,-185 70,-256l28,-69l-34,-57c-19,-31 -39,-73 -45,-93c-8,-25 -24,-43 -54,-62c-23,-15 -46,-27 -51,-27c-5,0 -68,60 -141,132l-133,133l172,172c170,170 187,182 188,127zm-727,-446l-146,-147l-77,39c-85,43 -213,136 -275,199l-39,41l174,175l175,175l167,-167l168,-168l-147,-147zm377,-73c82,-83 102,-108 91,-115c-54,-33 -342,-42 -430,-14c-10,3 24,43 99,119c63,63 119,115 125,115c6,0 58,-47 115,-105zm580,-33c58,-86 226,-254 312,-312c37,-25 68,-48 68,-52c0,-15 -80,-33 -150,-32c-90,0 -147,23 -212,83c-68,62 -102,139 -102,231c-1,70 17,150 32,150c4,0 27,-31 52,-68zm568,-456c15,-8 222,-210 460,-448l432,-434l-38,-37l-37,-37l-460,461c-358,358 -457,462 -445,469c8,5 24,16 35,24c25,19 21,19 53,2zm-1734,-1025l57,-58l-26,-79c-15,-43 -36,-95 -48,-114c-11,-19 -99,-114 -194,-211c-141,-144 -178,-188 -203,-240c-16,-35 -30,-73 -30,-84c0,-14 -54,34 -180,160l-180,179l38,12c83,24 132,61 297,224c94,92 185,177 204,190c27,19 180,79 201,80c3,0 32,-26 64,-59zm-730,-730l229,-230l-27,-36c-38,-49 -70,-69 -93,-56c-31,17 -443,436 -443,451c0,13 86,100 99,100c3,0 109,-103 235,-229zm4440,186c25,-24 46,-48 46,-53c0,-5 -103,-112 -229,-238l-229,-229l-26,16c-13,9 -37,33 -52,52l-27,36l229,230c126,126 232,229 235,229c3,0 27,-19 53,-43z"/>
   <path fill="#ffffff" id="svg_3" d="m3765,4801c-198,-37 -345,-86 -526,-177c-437,-218 -720,-561 -795,-963c-25,-132 -15,-357 20,-476c98,-325 337,-583 646,-696c130,-47 211,-61 355,-61c180,-1 313,29 484,108c396,183 727,644 843,1176c19,88 22,133 22,303c0,173 -3,210 -21,277c-38,133 -88,223 -178,314c-91,93 -168,137 -312,180c-77,23 -109,27 -263,30c-139,3 -195,0 -275,-15zm195,-246c-63,-63 -119,-115 -125,-115c-16,0 -188,177 -178,183c8,5 128,30 193,40c14,2 70,5 125,6l100,1l-115,-115zm420,43c87,-42 176,-132 220,-221l33,-68l-169,-170l-169,-169l-177,177l-178,178l158,158c179,180 163,173 282,115zm-777,-146c64,-64 117,-122 117,-127c0,-6 -73,-83 -162,-172l-163,-163l-172,166c-95,91 -173,169 -173,174c0,7 104,77 193,130c38,22 227,110 237,110c3,0 58,-53 123,-118zm-493,-397l175,-175l-168,-167l-167,-168l-149,149l-150,150l41,79c23,44 62,107 87,141c46,63 139,166 150,166c3,0 85,-79 181,-175zm918,-357c-88,-92 -163,-168 -167,-168c-3,0 -86,80 -183,177l-178,178l167,167l168,168l177,-177l177,-177l-161,-168zm640,270c-5,-139 -28,-290 -47,-310c-4,-4 -54,40 -111,97l-105,105l130,130c71,72 132,130 134,130c2,0 1,-69 -1,-152zm-1095,-376l177,-177l-168,-168l-167,-167l-180,180l-180,180l165,165c91,91 167,165 170,165c3,0 85,-80 183,-178zm866,24l133,-133l-32,-74c-38,-91 -99,-202 -158,-292l-46,-68l-185,185l-186,186l165,165c91,91 167,165 170,165c3,0 65,-60 139,-134zm-1709,-291c-125,-124 -122,-124 -141,-11c-12,74 -8,323 5,345c6,9 42,-21 127,-105l119,-119l-110,-110zm440,-490c-74,-74 -140,-135 -146,-135c-18,0 -98,57 -166,119c-58,54 -158,182 -174,226c-5,12 28,52 127,151l134,134l180,-180l180,-180l-135,-135zm1007,39c-80,-75 -155,-128 -251,-180l-81,-43l-163,162l-162,162l167,167l168,168l190,-191l190,-190l-58,-55zm-628,-146c156,-151 160,-143 -79,-143c-122,0 -170,4 -228,20l-73,19l118,118c65,65 121,117 124,116c4,-2 66,-60 138,-130z"/>
   <path fill="#ffffff" id="svg_4" d="m2470,1701c-90,-29 -165,-95 -202,-176c-19,-43 -23,-73 -28,-205l-5,-155l-193,-449c-143,-335 -190,-454 -186,-473c7,-26 222,-218 262,-234c33,-13 61,2 151,81l81,72l88,-74c48,-42 97,-78 109,-82c29,-9 53,4 147,86c67,57 81,66 95,56c9,-7 45,-38 81,-69c79,-68 104,-82 133,-73c22,7 201,154 245,201c12,13 22,36 22,50c0,14 -88,231 -195,482l-195,457l0,140c0,137 -1,143 -30,202c-56,111 -142,164 -275,168c-44,2 -91,0 -105,-5zm179,-161c65,-33 81,-70 81,-189l0,-101l-170,0l-170,0l0,89c0,97 9,133 43,170c49,53 147,67 216,31zm170,-582c33,-78 59,-143 57,-145c-2,-2 -32,-9 -67,-15c-125,-23 -530,-11 -557,17c-4,4 83,218 110,268c8,15 28,17 202,17l193,0l62,-142zm-551,-302c40,-8 76,-16 78,-19c3,-3 -10,-79 -29,-170c-38,-181 -29,-165 -145,-262l-32,-27l-49,41c-26,22 -53,46 -59,54c-9,10 7,58 71,205c45,106 84,192 87,192c3,0 38,-6 78,-14zm757,-182l82,-192l-59,-52l-59,-52l-32,25c-18,14 -51,43 -74,64l-42,38l-34,168c-18,92 -31,167 -28,168c3,1 35,7 71,14c36,7 71,12 79,11c8,-1 48,-81 96,-192zm-367,-17l33,-168l-47,-42c-84,-74 -75,-73 -143,-16c-34,28 -61,58 -61,67c0,10 14,88 32,175l31,158l61,-3l60,-3l34,-168z"/>
  </g>
 </g>
</svg>