<svg width="512" height="512" xmlns="http://www.w3.org/2000/svg" preserveAspectRatio="xMidYMid meet" version="1.0">

 <g>
  <title>Слой 1</title>
  <g id="svg_1" fill="#000000" transform="translate(0 512) scale(0.1 -0.1)">
   <path fill="#ffffff" id="svg_2" d="m3541,4802c-25,-12 -46,-39 -80,-101c-45,-82 -48,-85 -126,-128c-98,-53 -115,-72 -115,-128c0,-57 24,-85 118,-135c75,-40 79,-44 120,-120c51,-93 80,-120 133,-120c51,0 85,31 133,122c38,71 44,77 113,114c96,51 125,81 127,132c1,56 -23,84 -116,135c-81,45 -84,47 -128,128c-62,114 -106,139 -179,101zm172,-326l58,-33l-58,-34c-43,-26 -65,-48 -87,-87c-17,-29 -33,-52 -36,-52c-3,1 -18,24 -35,53c-23,39 -44,60 -88,86l-58,34l56,30c42,23 63,42 82,76c44,77 43,77 77,16c25,-45 43,-63 89,-89z"/>
   <path fill="#ffffff" id="svg_3" d="m2150,4750c-15,-15 -20,-33 -20,-75l0,-55l-45,0c-99,0 -144,-60 -95,-123c17,-22 30,-27 78,-29l57,-3l3,-55c4,-64 30,-100 73,-100c49,0 72,30 77,99l4,61l54,0c66,0 94,22 94,74c0,48 -37,76 -101,76l-49,0l0,49c0,64 -28,101 -76,101c-21,0 -42,-8 -54,-20z"/>
   <path fill="#ffffff" id="svg_4" d="m1501,4412c-28,-13 -47,-40 -94,-124l-59,-107l-104,-56c-122,-66 -138,-85 -132,-154l5,-49l-136,-4c-197,-7 -290,-46 -387,-165c-77,-94 -88,-139 -92,-369l-3,-201l27,-22c35,-28 69,-27 99,4c25,24 25,26 25,204l0,179l33,63c20,40 48,75 75,96c73,55 118,63 373,63l228,0l50,-93c59,-109 76,-127 128,-133c59,-8 89,18 149,126l52,95l1238,3c1368,2 1299,5 1386,-61c27,-21 55,-56 75,-96l33,-63l0,-589l0,-589l-89,0l-90,0l-3,308c-3,289 -4,310 -24,353c-31,67 -87,124 -152,156l-57,28l-570,0l-570,0l-53,-24c-69,-31 -143,-112 -165,-181c-14,-44 -17,-97 -17,-346l0,-294l-120,0l-120,0l0,294c0,249 -3,302 -17,346c-22,69 -96,150 -165,181l-53,24l-570,0l-570,0l-57,-28c-65,-32 -121,-89 -152,-156c-20,-43 -21,-64 -24,-353l-3,-308l-90,0l-89,0l0,260l0,261l-25,24c-30,30 -64,32 -99,4l-26,-20l0,-275l0,-274l-62,-31c-88,-45 -170,-130 -216,-226c-35,-76 -37,-82 -40,-210l-4,-132l-53,-25c-56,-28 -98,-78 -115,-137c-6,-19 -10,-164 -10,-324c0,-284 1,-291 24,-341c25,-54 71,-96 125,-115l31,-11l-2,-172l-3,-171l-67,-3c-59,-3 -70,-6 -88,-29c-27,-34 -25,-69 5,-98l24,-25l2511,0l2511,0l24,25c30,29 32,64 5,98c-18,23 -29,26 -88,29l-67,3l-3,171l-2,172l31,11c54,19 100,61 125,115c23,50 24,57 24,341c0,160 -4,305 -10,324c-17,59 -59,109 -115,137l-53,25l-4,132c-3,128 -5,134 -40,210c-46,96 -128,181 -216,226l-62,31l0,599c0,560 -1,603 -19,660c-48,155 -171,267 -329,300c-37,8 -387,11 -1171,11l-1119,0l5,43c8,70 -11,94 -132,162l-107,60l-58,105c-44,81 -65,109 -91,122c-19,10 -41,18 -49,18c-8,0 -30,-8 -49,-18zm98,-269c35,-64 43,-71 119,-114l82,-46l-78,-42c-79,-43 -111,-78 -153,-173c-7,-16 -15,-28 -18,-28c-3,0 -23,32 -44,70c-41,74 -70,102 -156,145l-54,27l82,46c79,45 84,50 124,124c24,44 46,73 51,68c5,-5 25,-39 45,-77zm625,-1107c64,-48 66,-61 66,-381l0,-285l-652,2l-653,3l-3,280c-2,274 -2,281 20,325c17,33 35,51 68,68l45,23l536,-3l536,-3l37,-29zm1826,12c33,-17 51,-35 68,-68c22,-44 22,-51 20,-325l-3,-280l-229,-3c-196,-2 -232,-5 -248,-19c-26,-23 -24,-85 3,-109c20,-18 46,-19 458,-24l436,-5l50,-24c63,-32 124,-93 156,-156c20,-43 24,-67 27,-167l4,-118l-2231,0l-2231,0l0,105c0,81 5,117 21,160c25,68 99,147 166,178l48,22l1411,5c1371,5 1413,6 1433,24c26,23 28,81 4,108c-15,17 -38,18 -300,18l-283,0l0,285c0,222 3,293 14,319c14,35 66,80 101,89c11,2 254,5 540,6l521,1l44,-22zm899,-1474c18,-23 21,-41 21,-135l0,-109l-2410,0l-2410,0l0,109c0,94 3,112 21,135l20,26l2369,0l2369,0l20,-26zm21,-485c0,-103 -7,-123 -51,-138c-23,-8 -490,-11 -1632,-11c-1475,0 -1602,-1 -1619,-17c-26,-23 -24,-84 3,-109c20,-18 59,-19 1340,-22l1319,-2l0,-170l0,-170l-1770,0l-1770,0l0,170l0,169l304,3c283,3 305,4 325,22c26,23 28,81 4,108c-15,17 -47,18 -603,18c-605,0 -640,2 -660,40c-6,10 -10,59 -10,109l0,91l2410,0l2410,0l0,-91zm-4330,-469l0,-170l-155,0l-155,0l0,170l0,170l155,0l155,0l0,-170zm4150,0l0,-170l-155,0l-155,0l0,170l0,170l155,0l155,0l0,-170z"/>
   <path fill="#ffffff" id="svg_5" d="m2790,4360c-11,-11 -20,-33 -20,-50c0,-24 -4,-30 -20,-30c-29,0 -76,-26 -84,-45c-18,-48 16,-102 67,-107c27,-3 32,-7 35,-33c11,-96 133,-100 148,-4c6,35 10,39 35,39c66,0 95,88 43,129c-15,12 -37,21 -50,21c-19,0 -24,5 -24,24c0,13 -9,35 -21,50c-26,33 -79,36 -109,6z"/>
  </g>
 </g>
</svg>