<svg width="512" height="512" xmlns="http://www.w3.org/2000/svg" preserveAspectRatio="xMidYMid meet" version="1.0">

 <g>
  <title>Слой 1</title>
  <g id="svg_1" fill="#000000" transform="translate(0 512) scale(0.1 -0.1)">
   <path fill="#ffffff" id="svg_2" d="m2585,5095c-14,-13 -25,-33 -25,-44c0,-12 -17,-32 -44,-50c-111,-77 -143,-175 -87,-268c11,-17 45,-50 75,-73c31,-22 56,-45 56,-49c0,-5 -23,-24 -51,-42c-62,-39 -97,-89 -105,-151c-6,-41 -4,-49 19,-72c34,-34 79,-34 112,-1c14,13 25,33 25,44c0,12 17,32 44,50c111,77 143,175 87,268c-11,17 -45,50 -76,73c-31,23 -55,45 -53,50c2,5 27,26 57,47c59,41 90,89 98,152c5,33 1,44 -20,65c-34,34 -79,34 -112,1z"/>
   <path fill="#ffffff" id="svg_3" d="m1305,4935c-14,-13 -25,-36 -25,-51c0,-20 -16,-42 -59,-83c-65,-61 -87,-98 -97,-160c-12,-73 12,-128 88,-205c84,-85 86,-100 17,-158c-63,-54 -98,-112 -106,-176c-5,-45 -3,-53 20,-76c34,-34 79,-34 112,-1c14,13 25,36 25,51c0,20 16,42 59,83c65,61 87,98 97,160c12,73 -12,127 -88,206c-38,39 -68,79 -68,90c0,12 27,46 64,81c65,63 96,123 96,186c0,39 -40,78 -80,78c-19,0 -40,-9 -55,-25z"/>
   <path fill="#ffffff" id="svg_4" d="m3865,4935c-14,-13 -25,-36 -25,-51c0,-20 -16,-42 -59,-83c-65,-61 -87,-98 -97,-160c-12,-73 12,-128 88,-205c84,-85 86,-100 17,-158c-63,-54 -98,-112 -106,-176c-5,-45 -3,-53 20,-76c34,-34 79,-34 112,-1c14,13 25,36 25,51c0,20 16,42 59,83c65,61 87,98 97,160c12,73 -12,127 -88,206c-38,39 -68,79 -68,90c0,12 27,46 64,81c65,63 96,123 96,186c0,39 -40,78 -80,78c-19,0 -40,-9 -55,-25z"/>
   <path fill="#ffffff" id="svg_5" d="m2315,3994c-22,-2 -96,-9 -165,-15c-502,-43 -1002,-200 -1333,-419c-116,-77 -284,-230 -338,-309l-34,-48l-73,-6c-145,-11 -264,-92 -330,-225c-35,-72 -37,-81 -37,-171c0,-87 3,-102 32,-163c54,-115 167,-206 275,-224c21,-4 41,-12 46,-18c5,-6 21,-57 35,-113c178,-675 764,-1254 1483,-1463c151,-44 283,-70 310,-60c28,11 54,48 54,76c0,46 -34,70 -127,89c-223,46 -481,143 -658,250c-166,100 -261,172 -393,300c-135,130 -237,258 -327,409c-56,94 -155,307 -155,335c0,7 28,-12 61,-44c251,-232 682,-418 1179,-509c266,-48 412,-60 740,-60c329,0 481,12 740,60c500,92 928,277 1179,509c33,32 61,53 61,47c0,-5 -16,-49 -36,-98c-150,-375 -451,-718 -828,-944c-177,-106 -435,-206 -646,-250c-112,-23 -150,-47 -150,-93c0,-29 26,-66 55,-77c51,-19 368,67 574,157c601,260 1064,779 1218,1366c14,56 30,107 35,113c5,6 25,14 46,18c108,18 221,109 275,224c29,61 32,76 32,162c0,86 -3,101 -32,162c-65,138 -187,224 -334,235l-74,6l-34,48c-54,79 -222,232 -338,309c-326,215 -793,364 -1318,420c-101,11 -596,21 -670,14zm449,-162c3,-5 -42,-55 -100,-113l-104,-104l-104,104c-58,58 -103,108 -100,113c3,4 95,8 204,8c109,0 201,-4 204,-8zm-786,-119l-98,-98l-70,70l-71,70l63,13c72,15 223,39 253,41c14,1 -9,-28 -77,-96zm1247,71c50,-9 105,-18 123,-21l34,-6l-73,-73l-73,-74l-64,63c-35,34 -77,79 -95,101l-31,38l45,-6c24,-4 85,-14 134,-22zm-890,-174l110,-110l-88,-88c-48,-48 -87,-92 -87,-97c0,-5 24,-33 52,-62l52,-53l93,92l93,93l280,-280l280,-280l57,58l58,57l-110,110l-110,110l113,113l112,112l112,-112l113,-113l-80,-80l-80,-80l58,-57l57,-58l250,250l250,249l40,-39l40,-39l55,54l55,54l-41,42c-35,36 -38,42 -25,54c13,10 28,5 88,-30c242,-143 398,-303 467,-478c19,-46 19,-53 5,-59c-9,-3 -26,5 -43,21l-27,26l-54,-55l-54,-55l29,-30l29,-31l-452,-452l-452,-452l-188,188c-103,103 -191,187 -197,187c-12,0 -105,-91 -105,-104c0,-5 8,-18 17,-28c16,-18 12,-24 -95,-131l-112,-112l-110,110l-110,110l-57,-58l-58,-57l110,-110c107,-108 109,-109 90,-130c-17,-19 -30,-20 -205,-20c-175,0 -188,1 -205,20c-19,21 -17,22 90,130l110,110l-58,57l-57,58l-110,-110l-110,-110l-70,70l-70,70l-57,-58l-58,-57l68,-68c37,-37 67,-71 67,-76c0,-13 -180,11 -340,45l-52,11l81,82c44,45 81,86 81,91c0,13 -92,105 -104,105c-6,0 -59,-48 -118,-107l-108,-108l-282,282l-283,283l60,60l60,60l-58,57l-57,58l-60,-60l-60,-60l-113,113l-112,112l112,112l112,112l29,-27c15,-15 32,-27 37,-27c5,0 33,23 62,52l53,52l-32,33l-32,33l264,266c146,146 276,270 289,275c23,9 41,-6 256,-221c126,-126 234,-230 240,-230c13,0 105,92 105,104c0,6 -30,41 -67,78l-68,68l110,110c60,61 112,110 115,110c3,0 55,-49 115,-110zm680,0l110,-110l-113,-113l-112,-112l-112,112l-113,113l110,110c60,60 112,110 115,110c3,0 55,-50 115,-110zm690,-11l100,-99l-113,-112l-112,-113l-112,112l-113,113l105,105c82,83 109,104 125,99c11,-3 65,-51 120,-105zm-2695,-184l-144,-145l-38,37l-38,38l22,17c80,63 306,197 333,198c5,0 -55,-65 -135,-145zm-297,-223l37,-38l-109,-108c-76,-76 -114,-107 -125,-103c-28,11 24,125 107,235c22,28 42,52 46,52c4,0 24,-17 44,-38zm-358,-179c-27,-69 -37,-164 -30,-301l7,-143l-40,20c-137,70 -173,246 -74,361c52,62 155,108 137,63zm4501,-18c118,-90 138,-239 46,-345c-19,-23 -52,-50 -74,-61l-40,-20l7,143c7,138 -3,232 -31,302c-7,17 -4,18 26,13c18,-4 48,-19 66,-32zm-4221,-405l110,-110l-47,-47l-47,-47l-21,25c-35,41 -97,151 -116,205c-16,47 -15,84 3,84c5,0 58,-50 118,-110zm3982,93c13,-34 -64,-198 -127,-272l-21,-25l-47,47l-47,47l110,110c60,60 113,110 118,110c4,0 11,-8 14,-17zm-3577,-498c108,-109 165,-172 148,-166c-88,33 -287,150 -381,224l-38,30l42,43c24,24 46,44 49,44c3,0 84,-79 180,-175zm3269,131l42,-43l-38,-30c-94,-74 -293,-191 -381,-224c-17,-6 40,57 148,166c96,96 177,175 180,175c3,0 25,-20 49,-44zm-980,-380l83,-84l-52,-11c-161,-34 -340,-58 -340,-45c0,9 211,224 220,224c3,0 43,-38 89,-84z"/>
   <path fill="#ffffff" id="svg_6" d="m1468,3425c-169,-43 -273,-151 -324,-336c-25,-89 -25,-290 -1,-379c40,-148 130,-283 245,-370c174,-131 362,-180 697,-180c303,0 487,25 596,81c139,70 208,225 197,438c-11,186 -93,299 -253,347c-51,16 -92,18 -276,17c-262,-3 -244,-11 -374,162c-95,126 -160,184 -235,211c-63,22 -202,27 -272,9zm203,-156c57,-18 102,-61 194,-184c82,-111 116,-145 185,-181c31,-17 61,-19 270,-20c206,-1 241,-3 285,-20c86,-34 121,-111 112,-254c-9,-170 -64,-231 -235,-267c-59,-13 -142,-16 -362,-17c-266,-1 -291,1 -375,22c-245,62 -401,208 -451,419c-30,127 -3,320 56,403c64,90 206,133 321,99z"/>
   <path fill="#ffffff" id="svg_7" d="m1520,3107c-49,-16 -133,-102 -148,-153c-28,-94 -8,-169 63,-239c51,-52 102,-75 165,-75c63,0 114,23 165,75c98,97 101,222 8,325c-65,72 -158,97 -253,67zm135,-172c50,-49 15,-135 -55,-135c-41,0 -80,39 -80,80c0,41 39,80 80,80c19,0 40,-9 55,-25z"/>
   <path fill="#ffffff" id="svg_8" d="m2320,2640l0,-80l80,0l80,0l0,80l0,80l-80,0l-80,0l0,-80z"/>
   <path fill="#ffffff" id="svg_9" d="m1920,2560l0,-80l80,0l80,0l0,80l0,80l-80,0l-80,0l0,-80z"/>
   <path fill="#ffffff" id="svg_10" d="m4071,3258c-73,-21 -116,-62 -167,-160c-58,-114 -129,-188 -235,-246c-107,-59 -170,-73 -315,-70c-111,3 -122,1 -164,-22c-172,-97 -164,-335 15,-425c59,-29 63,-30 205,-29c179,1 292,28 448,105c236,117 397,284 492,509c61,145 -3,293 -144,335c-56,17 -86,18 -135,3zm107,-164c39,-27 44,-57 21,-119c-68,-183 -267,-369 -491,-460c-163,-66 -403,-75 -461,-16c-27,26 -26,76 1,103c20,20 33,22 159,23c121,2 147,5 210,28c197,70 337,190 424,361c46,91 87,115 137,80z"/>
   <path fill="#ffffff" id="svg_11" d="m2345,1255l-25,-24l0,-591l0,-591l25,-24c24,-25 26,-25 215,-25c189,0 191,0 215,25l25,24l0,591l0,591l-25,24c-24,25 -26,25 -215,25c-189,0 -191,0 -215,-25zm295,-615l0,-480l-80,0l-80,0l0,480l0,480l80,0l80,0l0,-480z"/>
   <path fill="#ffffff" id="svg_12" d="m1112,1103c-23,-19 -392,-992 -392,-1032c0,-12 11,-33 25,-46c24,-25 26,-25 213,-25c166,0 192,2 210,18c23,18 332,831 332,871c0,54 -79,89 -126,56c-15,-10 -65,-132 -165,-400l-143,-385l-73,0c-40,0 -73,3 -73,7c0,4 72,198 160,433c88,235 160,436 160,449c0,56 -84,91 -128,54z"/>
   <path fill="#ffffff" id="svg_13" d="m3905,1095c-14,-13 -25,-34 -25,-46c0,-13 72,-214 160,-449c88,-235 160,-429 160,-433c0,-4 -33,-7 -73,-7l-72,0l-145,386c-98,261 -151,390 -164,400c-47,32 -126,-4 -126,-57c0,-40 309,-853 332,-871c18,-16 44,-18 210,-18c187,0 189,0 213,25c14,13 25,34 25,46c0,40 -369,1013 -392,1032c-29,25 -74,22 -103,-8z"/>
  </g>
 </g>
</svg>