<svg width="512" height="512" xmlns="http://www.w3.org/2000/svg" preserveAspectRatio="xMidYMid meet" version="1.0">

 <g>
  <title>Слой 1</title>
  <g id="svg_1" fill="#000000" transform="translate(0 512) scale(0.1 -0.1)">
   <path fill="#ffffff" id="svg_2" d="m67,5042c-15,-17 -17,-78 -17,-676c0,-434 4,-664 10,-677c10,-19 31,-19 858,-19c646,0 851,3 860,12c9,9 12,174 12,679c0,594 -2,669 -16,683c-14,14 -105,16 -853,16c-799,0 -839,-1 -854,-18zm793,-677l0,-585l-348,2l-347,3l-3,570c-1,314 0,576 3,583c3,9 83,12 350,12l345,0l0,-585zm818,-2l2,-583l-350,0l-350,0l0,585l0,585l348,-2l347,-3l3,-582z"/>
   <path fill="#ffffff" id="svg_3" d="m707,4462c-24,-26 -24,-173 -1,-196c18,-18 47,-20 75,-6c17,9 19,22 19,99c0,72 -3,91 -18,104c-24,22 -55,21 -75,-1z"/>
   <path fill="#ffffff" id="svg_4" d="m1057,4462c-13,-14 -17,-38 -17,-100c0,-88 12,-112 55,-112c43,0 55,24 55,114c0,68 -3,86 -18,99c-24,22 -55,21 -75,-1z"/>
   <path fill="#ffffff" id="svg_5" d="m2104,5046c-18,-14 -19,-35 -24,-630l-5,-616l-255,-228l-255,-228l-3,-138c-2,-119 0,-141 14,-157c16,-18 54,-19 974,-19c914,0 958,1 973,18c14,15 17,42 17,154l0,136l-63,58c-35,33 -151,137 -260,233l-197,175l-2,614c-3,594 -4,614 -22,628c-29,21 -863,21 -892,0zm796,-698c3,-379 9,-600 15,-606c6,-5 98,-87 205,-182c107,-95 197,-177 198,-182c2,-4 -203,-8 -455,-8c-344,0 -462,-3 -471,-12c-20,-20 -15,-76 7,-88c13,-6 194,-10 520,-10l501,0l0,-60l0,-60l-870,0l-870,0l0,60l0,60l242,0c211,0 244,2 260,17c22,20 23,56 2,77c-13,13 -46,16 -210,16c-107,0 -194,3 -193,8c0,4 73,71 162,149c89,79 183,162 210,186l47,44l0,590c0,324 3,593 7,596c4,4 160,6 347,5l341,-3l5,-597z"/>
   <path fill="#ffffff" id="svg_6" d="m3326,5044c-14,-14 -16,-89 -16,-683c0,-505 3,-670 12,-679c9,-9 213,-12 854,-12c753,0 844,2 858,16c14,14 16,89 16,678c0,630 -1,664 -18,679c-17,16 -91,17 -855,17c-746,0 -837,-2 -851,-16zm794,-679l0,-585l-350,0l-350,0l0,578c0,318 3,582 7,585c3,4 161,7 350,7l343,0l0,-585zm815,0l0,-580l-347,-3l-348,-2l0,585l0,585l348,-2l347,-3l0,-580z"/>
   <path fill="#ffffff" id="svg_7" d="m3967,4462c-13,-14 -17,-38 -17,-100c0,-88 12,-112 55,-112c43,0 55,24 55,114c0,68 -3,86 -18,99c-24,22 -55,21 -75,-1z"/>
   <path fill="#ffffff" id="svg_8" d="m4316,4464c-12,-12 -16,-37 -16,-104c0,-78 2,-91 19,-100c29,-15 56,-12 74,8c25,28 24,172 -1,195c-23,21 -56,22 -76,1z"/>
   <path fill="#ffffff" id="svg_9" d="m4640,2723c-77,-29 -110,-92 -110,-208c0,-104 9,-125 53,-125c49,0 57,15 57,101c0,62 4,81 21,103c24,31 52,33 79,6c19,-19 20,-33 20,-290l0,-270l-672,0l-673,0l3,85l3,85l99,0c93,0 100,1 118,25c23,29 19,59 -11,80c-18,13 -88,15 -438,15c-396,0 -418,-1 -440,-19c-23,-18 -24,-25 -24,-145l0,-126l-188,0c-176,0 -189,1 -182,18c12,32 25,115 25,163l0,49l38,0c94,0 98,104 5,117c-39,5 -41,7 -46,46c-3,23 -14,47 -23,54c-14,10 -92,13 -330,13c-351,0 -344,1 -344,-71c0,-38 -1,-39 -34,-39c-38,0 -86,-33 -86,-59c0,-37 29,-61 76,-61l44,0l0,-80c0,-48 6,-95 14,-115l15,-35l-351,0c-334,0 -350,1 -336,18c53,60 82,186 76,329c-4,111 -6,113 -157,113l-115,0l47,48c26,26 47,57 47,68c0,26 -19,50 -48,59c-19,6 -37,-7 -116,-84l-92,-91l-116,0c-93,0 -120,-3 -132,-16c-13,-12 -16,-40 -16,-143c0,-140 12,-198 54,-262l26,-39l-193,0c-158,0 -197,-3 -215,-16l-22,-15l0,-958c0,-915 1,-959 18,-974c17,-15 66,-17 503,-17c525,0 522,0 521,53c0,58 16,57 -476,59l-451,3l-3,58l-3,57l2391,0l2391,0l-3,-58l-3,-57l-1790,-2c-1669,-3 -1791,-4 -1802,-20c-18,-24 -16,-57 5,-76c17,-16 159,-17 1844,-17c1755,0 1826,1 1841,18c15,16 17,48 17,244c0,205 -2,226 -18,241c-21,19 -45,21 -73,7c-16,-9 -19,-22 -19,-85l0,-75l-295,0l-295,0l0,465l0,465l293,-2l292,-3l3,-305c2,-273 4,-306 19,-318c24,-17 57,-15 76,6c15,17 17,77 17,650c0,734 10,672 -105,672l-65,0l0,269c0,173 -4,280 -11,302c-14,40 -53,85 -91,105c-27,14 -109,18 -138,7zm-3665,-428c-1,-72 -5,-98 -23,-131c-41,-80 -115,-124 -207,-124c-105,0 -190,63 -220,164c-15,51 -20,167 -8,180c4,3 108,5 232,4l226,-3l0,-90zm1283,-35c3,-135 -5,-168 -46,-200c-22,-18 -41,-20 -178,-20c-227,0 -237,8 -242,198c-2,67 -1,129 2,137c5,13 38,15 233,13l228,-3l3,-125zm1052,-113c0,-109 4,-107 -232,-107c-242,0 -238,-2 -238,102l0,68l235,0l235,0l0,-63zm-1870,-577l0,-350l-637,2l-638,3l-3,348l-2,347l640,0l640,0l0,-350zm2100,-405l0,-755l-115,0l-115,0l0,178c0,198 -6,222 -60,222c-47,0 -60,-22 -60,-101l0,-69l-640,0l-640,0l0,350l0,350l640,0l640,0l0,-185c0,-172 1,-186 20,-205c21,-21 47,-25 66,-12c29,19 34,56 34,259c0,173 -3,212 -16,231l-15,22l-729,0l-729,0l-15,-22c-14,-20 -16,-86 -16,-520l0,-498l-115,0l-115,0l0,755l0,755l990,0l990,0l0,-755zm1398,523l-3,-233l-637,-3l-638,-2l0,235l0,235l640,0l640,0l-2,-232zm-698,-813l0,-465l-290,0l-290,0l0,465l0,465l290,0l290,0l0,-465zm-2800,-115l0,-350l-640,0l-640,0l0,343c0,189 3,347 7,350c3,4 291,7 640,7l633,0l0,-350zm1750,-295l0,-55l-640,0l-640,0l0,55l0,55l640,0l640,0l0,-55z"/>
   <path fill="#ffffff" id="svg_10" d="m650,1610c-11,-11 -20,-29 -20,-40c0,-11 9,-29 20,-40c18,-18 33,-20 155,-20c122,0 137,2 155,20c11,11 20,29 20,40c0,11 -9,29 -20,40c-18,18 -33,20 -155,20c-122,0 -137,-2 -155,-20z"/>
   <path fill="#ffffff" id="svg_11" d="m2015,1847c-43,-20 -93,-80 -101,-122c-31,-170 171,-282 292,-161c78,78 65,200 -28,269c-34,25 -121,33 -163,14zm113,-125c27,-35 1,-92 -43,-92c-54,0 -74,83 -26,106c27,14 50,9 69,-14z"/>
   <path fill="#ffffff" id="svg_12" d="m2468,1840c-52,-28 -81,-73 -86,-137c-5,-64 9,-103 54,-143c48,-41 103,-56 154,-41c49,14 103,60 120,101c18,44 8,130 -19,169c-48,67 -149,90 -223,51zm128,-125c13,-21 15,-31 6,-50c-22,-48 -95,-41 -108,11c-14,57 69,89 102,39z"/>
   <path fill="#ffffff" id="svg_13" d="m2945,1846c-17,-7 -45,-29 -62,-49c-82,-94 -34,-244 88,-277c162,-44 286,151 176,277c-53,60 -133,79 -202,49zm113,-119c17,-13 15,-57 -5,-79c-35,-39 -98,-7 -91,48c5,46 56,62 96,31z"/>
   <path fill="#ffffff" id="svg_14" d="m2153,1194c-15,-24 -15,-29 -2,-53l15,-26l384,0l384,0l15,26c13,24 13,29 -2,53l-17,26l-380,0l-380,0l-17,-26z"/>
   <path fill="#ffffff" id="svg_15" d="m4220,1744c-41,-16 -53,-70 -22,-97c28,-25 172,-24 195,1c21,23 22,52 3,77c-11,16 -28,20 -88,22c-40,1 -80,0 -88,-3z"/>
   <path fill="#ffffff" id="svg_16" d="m4080,970c-16,-16 -20,-33 -20,-93c0,-85 16,-117 59,-117c47,0 61,26 61,113c0,83 -17,117 -60,117c-11,0 -29,-9 -40,-20z"/>
   <path fill="#ffffff" id="svg_17" d="m646,794c-21,-21 -20,-57 2,-77c15,-14 42,-17 160,-17c134,0 142,1 156,22c21,29 20,51 -2,71c-27,24 -293,25 -316,1z"/>
   <path fill="#ffffff" id="svg_18" d="m4430,970c-16,-16 -20,-33 -20,-93c0,-86 16,-117 60,-117c44,0 60,31 60,117c0,79 -18,113 -60,113c-11,0 -29,-9 -40,-20z"/>
  </g>
 </g>
</svg>