<svg width="512" height="512" xmlns="http://www.w3.org/2000/svg" preserveAspectRatio="xMidYMid meet" version="1.0">

 <g>
  <title>Слой 1</title>
  <g id="svg_1" fill="#000000" transform="translate(0 512) scale(0.1 -0.1)">
   <path fill="#ffffff" id="svg_2" d="m2470,4784c-243,-47 -423,-239 -450,-482c-4,-40 -10,-74 -11,-76c-13,-9 -679,-556 -936,-768l-312,-258l-277,0c-185,0 -290,-4 -316,-12c-22,-6 -62,-31 -88,-55c-86,-77 -80,26 -80,-1367c1,-1002 3,-1238 14,-1269c22,-59 64,-107 120,-133l51,-24l501,0l501,0l21,23c27,29 28,67 3,98l-19,24l-489,3c-333,1 -495,6 -509,13c-37,19 -44,53 -44,209l0,150l2410,0l2410,0l0,-150c0,-156 -7,-190 -44,-209c-15,-8 -494,-12 -1739,-14l-1719,-2l-19,-24c-26,-32 -24,-73 4,-99l23,-22l1741,2l1740,3l49,30c30,19 60,49 79,79l30,49l3,1241c2,931 0,1252 -9,1284c-7,25 -30,63 -56,92c-69,76 -87,80 -419,80c-269,0 -282,1 -295,20c-8,11 -185,159 -394,329c-323,264 -385,310 -412,311c-44,0 -73,-30 -73,-75c0,-33 12,-44 328,-301c180,-147 331,-271 336,-275c6,-5 -74,-9 -180,-9l-189,1l-402,331l-402,330l33,42c19,22 46,66 61,96c15,30 29,57 31,59c1,2 37,-25 79,-60c55,-45 84,-62 105,-62c51,0 88,50 70,97c-5,13 -54,61 -110,106c-55,46 -105,91 -110,101c-6,10 -10,36 -10,57c0,91 -70,244 -148,325c-98,101 -224,157 -367,162c-49,2 -101,1 -115,-1zm255,-182c120,-57 206,-171 223,-297c24,-181 -63,-341 -226,-418c-61,-29 -76,-32 -162,-32c-86,0 -101,3 -162,32c-163,77 -250,237 -226,418c20,151 143,286 295,325c71,18 186,5 258,-28zm-654,-594c13,-29 41,-73 61,-99l37,-47l-402,-331l-402,-330l-190,0c-189,0 -190,0 -165,19c14,10 250,203 525,429c275,225 503,410 506,410c3,1 16,-22 30,-51zm364,-293c109,-28 239,-15 351,34l42,19l344,-281l343,-282l-478,-3c-262,-1 -692,-1 -954,0l-477,3l343,282l343,281l42,-19c23,-10 69,-25 101,-34zm2506,-694l29,-29l0,-156l0,-156l-2410,0l-2410,0l0,156l0,156l29,29l29,29l2352,0l2352,0l29,-29zm29,-1251l0,-760l-2410,0l-2410,0l0,760l0,760l2410,0l2410,0l0,-760z"/>
   <path fill="#ffffff" id="svg_3" d="m859,2286c-67,-18 -136,-62 -165,-106c-39,-58 -51,-150 -30,-223c27,-92 67,-128 231,-207c161,-78 199,-111 210,-184c5,-34 3,-54 -11,-82c-28,-55 -63,-77 -134,-82c-88,-6 -121,3 -195,58c-37,28 -72,50 -77,50c-5,0 -20,-11 -33,-25c-39,-38 -34,-79 18,-130c97,-96 305,-122 438,-54c155,79 194,324 72,459c-44,49 -59,58 -274,159c-73,34 -99,64 -106,120c-5,47 26,97 72,117c56,23 157,18 233,-12c71,-29 86,-27 111,18c21,37 7,74 -37,97c-79,40 -229,53 -323,27z"/>
   <path fill="#ffffff" id="svg_4" d="m1626,2278c-19,-19 -52,-112 -165,-483c-139,-455 -140,-460 -122,-485c9,-13 32,-28 50,-33c56,-14 74,7 106,123l29,100l174,-2l175,-3l28,-100c17,-57 36,-106 46,-113c33,-24 123,10 123,46c0,9 -63,224 -140,477c-104,340 -146,465 -161,478c-32,26 -111,23 -143,-5zm143,-423c34,-115 61,-215 61,-222c0,-10 -32,-13 -136,-13c-125,0 -136,1 -132,18c47,177 133,450 139,440c4,-7 34,-107 68,-223z"/>
   <path fill="#ffffff" id="svg_5" d="m2223,2293c-12,-2 -27,-10 -33,-18c-8,-9 -10,-128 -8,-407l3,-394l30,-60c22,-43 43,-68 79,-91c62,-42 109,-54 211,-54c112,0 180,26 238,90c70,79 70,80 74,501c2,206 2,384 -1,396c-10,40 -107,54 -135,20c-6,-7 -11,-164 -13,-391c-3,-359 -4,-382 -23,-414c-28,-48 -77,-71 -151,-71c-72,0 -119,26 -146,80c-16,31 -18,73 -18,405c0,204 -4,375 -8,382c-7,12 -57,34 -70,32c-4,-1 -17,-4 -29,-6z"/>
   <path fill="#ffffff" id="svg_6" d="m3043,2293c-12,-2 -26,-10 -32,-17c-8,-9 -10,-161 -9,-497l3,-484l29,-14c23,-11 36,-11 67,-2c22,7 40,13 41,14c1,1 5,149 8,329l5,327l164,-312c90,-172 174,-323 187,-337c17,-18 35,-25 63,-25c75,0 71,-29 71,510c0,538 4,508 -70,508c-73,0 -70,13 -70,-351c0,-209 -3,-323 -10,-316c-5,5 -80,146 -165,314c-86,168 -166,315 -178,327c-23,22 -67,33 -104,26z"/>
   <path fill="#ffffff" id="svg_7" d="m4061,2283c-17,-14 -56,-128 -162,-473c-77,-250 -139,-466 -137,-480c4,-34 67,-65 105,-53c24,8 31,21 58,114l31,104l175,3l174,2l30,-106c27,-97 33,-108 57,-117c40,-13 102,19 106,53c1,14 -60,230 -137,480c-107,349 -145,459 -161,472c-30,24 -110,24 -139,1zm139,-423c35,-118 65,-221 67,-227c4,-10 -27,-13 -137,-13c-110,0 -141,3 -137,13c2,6 33,112 68,234c35,122 67,219 70,215c4,-4 35,-104 69,-222z"/>
  </g>
 </g>
</svg>