<svg width="512" height="512" xmlns="http://www.w3.org/2000/svg" preserveAspectRatio="xMidYMid meet" version="1.0">

 <g>
  <title>Слой 1</title>
  <g id="svg_1" fill="#000000" transform="translate(0 512) scale(0.1 -0.1)">
   <path fill="#ffffff" id="svg_2" d="m2305,5109c-571,-58 -1081,-266 -1526,-620c-157,-125 -267,-235 -280,-279c-34,-111 67,-219 177,-189c21,6 76,48 147,111c527,475 1142,706 1817,685c625,-20 1165,-243 1657,-685c120,-108 156,-126 218,-112c88,20 141,130 101,208c-33,65 -289,284 -480,411c-360,241 -768,395 -1206,457c-128,18 -502,26 -625,13z"/>
   <path fill="#ffffff" id="svg_3" d="m2405,4294c-16,-2 -72,-9 -124,-15c-360,-42 -750,-213 -1046,-461c-157,-131 -193,-184 -175,-263c14,-64 80,-115 147,-115c41,0 81,25 180,114c665,592 1681,592 2346,0c130,-116 167,-131 240,-100c69,29 105,101 85,174c-18,71 -235,258 -439,380c-254,152 -564,254 -864,282c-103,9 -283,11 -350,4z"/>
   <path fill="#ffffff" id="svg_4" d="m2400,3524c-209,-39 -294,-65 -433,-136c-151,-78 -321,-209 -351,-272c-34,-72 -11,-155 56,-197c25,-15 45,-19 85,-16c55,4 51,2 179,110c82,69 255,158 369,189c68,19 106,22 255,22c149,0 187,-3 255,-22c117,-32 287,-120 369,-189c127,-108 124,-106 179,-110c90,-7 157,56 157,147c0,59 -28,100 -117,172c-168,136 -326,218 -518,269c-108,28 -138,31 -290,34c-93,2 -181,2 -195,-1z"/>
   <path fill="#ffffff" id="svg_5" d="m2447,2699c-75,-18 -152,-62 -215,-125c-230,-229 -168,-606 123,-749c293,-145 642,52 672,379c20,223 -141,445 -358,495c-53,13 -170,12 -222,0z"/>
   <path fill="#ffffff" id="svg_6" d="m1614,1420c-25,-13 -49,-35 -62,-59c-22,-39 -22,-41 -22,-641c0,-535 2,-606 16,-636c35,-74 120,-102 196,-65c74,35 82,60 88,256l5,169l184,-208c196,-222 222,-243 294,-233c76,10 127,69 127,147c0,58 -11,75 -169,253c-72,82 -133,152 -136,156c-2,5 24,22 59,40c163,80 253,235 244,420c-5,114 -43,198 -125,279c-117,116 -205,142 -478,142c-161,0 -184,-2 -221,-20zm442,-301c60,-29 88,-76 82,-140c-9,-94 -67,-129 -213,-129l-95,0l0,145l0,145l92,0c72,0 101,-4 134,-21z"/>
   <path fill="#ffffff" id="svg_7" d="m479,1407c-71,-47 -69,-23 -69,-693l0,-601l22,-33c36,-52 71,-73 121,-73c51,0 100,25 131,66c20,27 21,43 24,268l3,239l152,0c139,0 155,2 191,23c101,57 99,205 -4,257c-34,17 -59,20 -190,20l-150,0l0,125l0,125l153,0c83,0 170,5 191,11c50,14 91,55 107,107c17,57 -8,122 -59,157l-37,25l-276,0c-270,0 -277,0 -310,-23z"/>
   <path fill="#ffffff" id="svg_8" d="m2882,1410c-18,-11 -41,-34 -52,-52c-19,-32 -20,-52 -20,-636c0,-653 -2,-629 55,-682l27,-25l303,0l303,0l27,25c74,69 74,161 0,230c-26,25 -29,25 -221,28l-194,3l0,135l0,134l164,0c153,0 165,1 196,23c55,37 75,72 74,128c-1,53 -19,87 -68,123c-25,19 -44,21 -197,24l-169,3l0,129l0,128l183,4c155,3 186,6 212,21c46,29 68,65 72,121c5,60 -18,105 -69,136c-31,19 -51,20 -313,20c-262,0 -282,-1 -313,-20z"/>
   <path fill="#ffffff" id="svg_9" d="m4012,1410c-18,-11 -41,-34 -52,-52c-19,-32 -20,-52 -20,-636c0,-669 -2,-651 65,-692c30,-19 49,-20 317,-20c280,0 286,0 319,23c89,59 89,185 0,244c-32,22 -43,23 -217,23l-184,0l0,134l0,135l169,3c185,3 197,7 245,71c40,54 17,153 -47,201c-26,19 -44,21 -198,24l-169,3l0,129l0,128l184,4c205,3 215,6 264,78c41,62 20,153 -47,197c-33,23 -39,23 -315,23c-263,0 -283,-1 -314,-20z"/>
  </g>
 </g>
</svg>